<?xml version="1.0" standalone="no"?><svg xmlns="http://www.w3.org/2000/svg" viewBox="0 0 1440 320"><path fill="#0099ff" fill-opacity="1" d="M0,32L24,64C48,96,96,160,144,170.7C192,181,240,139,288,112C336,85,384,75,432,90.7C480,107,528,149,576,192C624,235,672,277,720,261.3C768,245,816,171,864,170.7C912,171,960,245,1008,256C1056,267,1104,213,1152,181.3C1200,149,1248,139,1296,138.7C1344,139,1392,149,1416,154.7L1440,160L1440,320L1416,320C1392,320,1344,320,1296,320C1248,320,1200,320,1152,320C1104,320,1056,320,1008,320C960,320,912,320,864,320C816,320,768,320,720,320C672,320,624,320,576,320C528,320,480,320,432,320C384,320,336,320,288,320C240,320,192,320,144,320C96,320,48,320,24,320L0,320Z"></path></svg>