<?xml version="1.0" standalone="no"?><svg xmlns="http://www.w3.org/2000/svg" viewBox="0 0 1440 320"><path fill="#a2d9ff" fill-opacity="1" d="M0,0L24,42.7C48,85,96,171,144,186.7C192,203,240,149,288,122.7C336,96,384,96,432,80C480,64,528,32,576,58.7C624,85,672,171,720,176C768,181,816,107,864,101.3C912,96,960,160,1008,160C1056,160,1104,96,1152,96C1200,96,1248,160,1296,181.3C1344,203,1392,181,1416,170.7L1440,160L1440,320L1416,320C1392,320,1344,320,1296,320C1248,320,1200,320,1152,320C1104,320,1056,320,1008,320C960,320,912,320,864,320C816,320,768,320,720,320C672,320,624,320,576,320C528,320,480,320,432,320C384,320,336,320,288,320C240,320,192,320,144,320C96,320,48,320,24,320L0,320Z"></path></svg>